<mxfile host="app.diagrams.net" modified="2021-11-09T11:51:37.068Z" agent="5.0 (Macintosh; Intel Mac OS X 10_15_7) AppleWebKit/537.36 (KHTML, like Gecko) Chrome/94.0.4606.71 Safari/537.36" etag="jfdVO83TxmUaF0v99YiM" version="15.5.0" type="github" pages="2">
  <diagram name="Page-1" id="74e2e168-ea6b-b213-b513-2b3c1d86103e">
    <mxGraphModel dx="1426" dy="737" grid="1" gridSize="10" guides="1" tooltips="1" connect="1" arrows="1" fold="1" page="1" pageScale="1" pageWidth="1100" pageHeight="850" background="#114B5F" math="0" shadow="0">
      <root>
        <mxCell id="0" />
        <mxCell id="1" parent="0" />
        <mxCell id="77e6c97f196da883-1" value="&lt;font style=&quot;font-size: 14px&quot;&gt;LPeDNN Application&lt;/font&gt;" style="swimlane;html=1;childLayout=stackLayout;startSize=20;rounded=0;shadow=0;labelBackgroundColor=none;strokeWidth=1;fontFamily=Verdana;fontSize=8;align=center;fillColor=#F45B69;strokeColor=#028090;fontColor=#E4FDE1;" parent="1" vertex="1">
          <mxGeometry x="70" y="40" width="960" height="750" as="geometry" />
        </mxCell>
        <mxCell id="77e6c97f196da883-2" value="GUI" style="swimlane;html=1;startSize=20;fillColor=#F45B69;strokeColor=#028090;fontColor=#E4FDE1;" parent="77e6c97f196da883-1" vertex="1">
          <mxGeometry y="20" width="490" height="730" as="geometry" />
        </mxCell>
        <mxCell id="KN3hPESkImrYS8vrROSs-82" style="edgeStyle=orthogonalEdgeStyle;curved=0;rounded=1;sketch=0;orthogonalLoop=1;jettySize=auto;html=1;entryX=0.5;entryY=0;entryDx=0;entryDy=0;fontSize=14;fontColor=#E4FDE1;strokeColor=#028090;fillColor=#F45B69;" edge="1" parent="77e6c97f196da883-2" source="77e6c97f196da883-8" target="KN3hPESkImrYS8vrROSs-81">
          <mxGeometry relative="1" as="geometry" />
        </mxCell>
        <mxCell id="KN3hPESkImrYS8vrROSs-88" style="edgeStyle=orthogonalEdgeStyle;curved=0;rounded=1;sketch=0;orthogonalLoop=1;jettySize=auto;html=1;entryX=0.5;entryY=0;entryDx=0;entryDy=0;fontSize=14;fontColor=#E4FDE1;strokeColor=#028090;fillColor=#F45B69;" edge="1" parent="77e6c97f196da883-2" source="77e6c97f196da883-8" target="KN3hPESkImrYS8vrROSs-85">
          <mxGeometry relative="1" as="geometry" />
        </mxCell>
        <mxCell id="77e6c97f196da883-8" value="&lt;font style=&quot;font-size: 14px&quot;&gt;Draw with the finger&lt;/font&gt;" style="rounded=1;whiteSpace=wrap;html=1;shadow=0;labelBackgroundColor=none;strokeWidth=1;fontFamily=Verdana;fontSize=8;align=center;fillColor=#F45B69;strokeColor=#028090;fontColor=#E4FDE1;" parent="77e6c97f196da883-2" vertex="1">
          <mxGeometry x="195" y="120" width="100" height="60" as="geometry" />
        </mxCell>
        <mxCell id="KN3hPESkImrYS8vrROSs-18" value="&lt;font style=&quot;font-size: 13px&quot;&gt;Input creation&lt;/font&gt;" style="rounded=1;whiteSpace=wrap;html=1;shadow=0;labelBackgroundColor=none;strokeWidth=1;fontFamily=Verdana;fontSize=8;align=center;fillColor=#F45B69;strokeColor=#028090;fontColor=#E4FDE1;" vertex="1" parent="77e6c97f196da883-2">
          <mxGeometry x="380" y="240" width="100" height="60" as="geometry" />
        </mxCell>
        <mxCell id="KN3hPESkImrYS8vrROSs-60" value="" style="edgeStyle=orthogonalEdgeStyle;curved=0;rounded=1;sketch=0;orthogonalLoop=1;jettySize=auto;html=1;fontSize=14;fontColor=#E4FDE1;strokeColor=#028090;fillColor=#F45B69;" edge="1" parent="77e6c97f196da883-2" source="KN3hPESkImrYS8vrROSs-56" target="KN3hPESkImrYS8vrROSs-59">
          <mxGeometry relative="1" as="geometry" />
        </mxCell>
        <mxCell id="KN3hPESkImrYS8vrROSs-56" value="&lt;font style=&quot;font-size: 14px&quot;&gt;write predicted character&lt;/font&gt;" style="rounded=1;whiteSpace=wrap;html=1;shadow=0;labelBackgroundColor=none;strokeWidth=1;fontFamily=Verdana;fontSize=8;align=center;fillColor=#F45B69;strokeColor=#028090;fontColor=#E4FDE1;" vertex="1" parent="77e6c97f196da883-2">
          <mxGeometry x="200" y="472.5" width="100" height="60" as="geometry" />
        </mxCell>
        <mxCell id="KN3hPESkImrYS8vrROSs-69" style="edgeStyle=orthogonalEdgeStyle;curved=0;rounded=1;sketch=0;orthogonalLoop=1;jettySize=auto;html=1;entryX=0.5;entryY=0;entryDx=0;entryDy=0;fontSize=14;fontColor=#E4FDE1;strokeColor=#028090;fillColor=#F45B69;" edge="1" parent="77e6c97f196da883-2" source="KN3hPESkImrYS8vrROSs-59" target="77e6c97f196da883-8">
          <mxGeometry relative="1" as="geometry">
            <Array as="points">
              <mxPoint x="105" y="621" />
              <mxPoint x="105" y="100" />
              <mxPoint x="245" y="100" />
            </Array>
          </mxGeometry>
        </mxCell>
        <mxCell id="KN3hPESkImrYS8vrROSs-59" value="&lt;font style=&quot;font-size: 14px&quot;&gt;Happy?&lt;/font&gt;" style="rhombus;whiteSpace=wrap;html=1;rounded=1;shadow=0;fontFamily=Verdana;fontSize=8;fontColor=#E4FDE1;strokeColor=#028090;strokeWidth=1;fillColor=#F45B69;" vertex="1" parent="77e6c97f196da883-2">
          <mxGeometry x="191.5" y="575" width="117.5" height="92.5" as="geometry" />
        </mxCell>
        <mxCell id="KN3hPESkImrYS8vrROSs-66" style="edgeStyle=orthogonalEdgeStyle;curved=0;rounded=1;sketch=0;orthogonalLoop=1;jettySize=auto;html=1;entryX=0;entryY=0.5;entryDx=0;entryDy=0;fontSize=14;fontColor=#E4FDE1;strokeColor=#028090;fillColor=#F45B69;" edge="1" parent="77e6c97f196da883-2" target="KN3hPESkImrYS8vrROSs-18">
          <mxGeometry relative="1" as="geometry">
            <mxPoint x="307.5" y="270" as="sourcePoint" />
          </mxGeometry>
        </mxCell>
        <mxCell id="KN3hPESkImrYS8vrROSs-68" value="NO" style="text;html=1;align=center;verticalAlign=middle;resizable=0;points=[];autosize=1;strokeColor=none;fillColor=none;fontSize=14;fontColor=#E4FDE1;" vertex="1" parent="77e6c97f196da883-2">
          <mxGeometry x="152.5" y="585" width="40" height="20" as="geometry" />
        </mxCell>
        <mxCell id="KN3hPESkImrYS8vrROSs-70" value="&lt;font style=&quot;font-size: 14px&quot;&gt;clear&lt;br&gt;&lt;/font&gt;" style="rounded=1;whiteSpace=wrap;html=1;shadow=0;labelBackgroundColor=none;strokeWidth=1;fontFamily=Verdana;fontSize=8;align=center;fillColor=#F45B69;strokeColor=#028090;fontColor=#E4FDE1;" vertex="1" parent="77e6c97f196da883-2">
          <mxGeometry x="50" y="431.25" width="100" height="32.5" as="geometry" />
        </mxCell>
        <mxCell id="KN3hPESkImrYS8vrROSs-71" value="YES" style="text;html=1;align=center;verticalAlign=middle;resizable=0;points=[];autosize=1;strokeColor=none;fillColor=none;fontSize=14;fontColor=#E4FDE1;" vertex="1" parent="77e6c97f196da883-2">
          <mxGeometry x="295" y="585" width="40" height="20" as="geometry" />
        </mxCell>
        <mxCell id="KN3hPESkImrYS8vrROSs-73" value="" style="ellipse;whiteSpace=wrap;html=1;aspect=fixed;rounded=0;sketch=0;fontSize=14;fontColor=#E4FDE1;strokeColor=#028090;fillColor=#F45B69;" vertex="1" parent="77e6c97f196da883-2">
          <mxGeometry x="100" y="350" width="10" height="10" as="geometry" />
        </mxCell>
        <mxCell id="KN3hPESkImrYS8vrROSs-72" style="edgeStyle=orthogonalEdgeStyle;curved=0;rounded=1;sketch=0;orthogonalLoop=1;jettySize=auto;html=1;fontSize=14;fontColor=#E4FDE1;strokeColor=#028090;fillColor=#F45B69;exitX=1;exitY=0.5;exitDx=0;exitDy=0;entryX=1;entryY=0.5;entryDx=0;entryDy=0;" edge="1" parent="77e6c97f196da883-2" source="KN3hPESkImrYS8vrROSs-59" target="KN3hPESkImrYS8vrROSs-73">
          <mxGeometry relative="1" as="geometry">
            <mxPoint x="185" y="395" as="targetPoint" />
            <Array as="points">
              <mxPoint x="385" y="621" />
              <mxPoint x="385" y="355" />
            </Array>
          </mxGeometry>
        </mxCell>
        <mxCell id="KN3hPESkImrYS8vrROSs-78" value="" style="edgeStyle=orthogonalEdgeStyle;curved=0;rounded=1;sketch=0;orthogonalLoop=1;jettySize=auto;html=1;fontSize=14;fontColor=#E4FDE1;strokeColor=#028090;fillColor=#F45B69;" edge="1" parent="77e6c97f196da883-2" source="KN3hPESkImrYS8vrROSs-77" target="77e6c97f196da883-8">
          <mxGeometry relative="1" as="geometry" />
        </mxCell>
        <mxCell id="KN3hPESkImrYS8vrROSs-77" value="START" style="rounded=0;whiteSpace=wrap;html=1;sketch=0;fontSize=14;fontColor=#E4FDE1;strokeColor=#028090;fillColor=#F45B69;" vertex="1" parent="77e6c97f196da883-2">
          <mxGeometry x="185" y="30" width="120" height="60" as="geometry" />
        </mxCell>
        <mxCell id="KN3hPESkImrYS8vrROSs-83" style="edgeStyle=orthogonalEdgeStyle;curved=0;rounded=1;sketch=0;orthogonalLoop=1;jettySize=auto;html=1;entryX=1;entryY=0.5;entryDx=0;entryDy=0;fontSize=14;fontColor=#E4FDE1;strokeColor=#028090;fillColor=#F45B69;" edge="1" parent="77e6c97f196da883-2" source="KN3hPESkImrYS8vrROSs-81" target="KN3hPESkImrYS8vrROSs-70">
          <mxGeometry relative="1" as="geometry" />
        </mxCell>
        <mxCell id="KN3hPESkImrYS8vrROSs-81" value="&lt;font style=&quot;font-size: 14px&quot;&gt;Delete&lt;/font&gt;" style="rounded=1;whiteSpace=wrap;html=1;shadow=0;labelBackgroundColor=none;strokeWidth=1;fontFamily=Verdana;fontSize=8;align=center;fillColor=#F45B69;strokeColor=#028090;fontColor=#E4FDE1;" vertex="1" parent="77e6c97f196da883-2">
          <mxGeometry x="150" y="255" width="77.5" height="30" as="geometry" />
        </mxCell>
        <mxCell id="KN3hPESkImrYS8vrROSs-85" value="" style="rounded=1;whiteSpace=wrap;html=1;shadow=0;labelBackgroundColor=none;strokeWidth=1;fontFamily=Verdana;fontSize=8;align=center;fillColor=#F45B69;strokeColor=#028090;fontColor=#E4FDE1;" vertex="1" parent="77e6c97f196da883-2">
          <mxGeometry x="267" y="255" width="60" height="30" as="geometry" />
        </mxCell>
        <mxCell id="KN3hPESkImrYS8vrROSs-87" value="" style="triangle;whiteSpace=wrap;html=1;rounded=0;sketch=0;fontSize=14;fontColor=#E4FDE1;strokeColor=#028090;fillColor=#97D077;" vertex="1" parent="77e6c97f196da883-2">
          <mxGeometry x="289" y="257" width="20" height="25" as="geometry" />
        </mxCell>
        <mxCell id="77e6c97f196da883-3" value="Network" style="swimlane;html=1;startSize=20;fillColor=#F45B69;strokeColor=#028090;fontColor=#E4FDE1;" parent="1" vertex="1">
          <mxGeometry x="560" y="60" width="470" height="730" as="geometry" />
        </mxCell>
        <mxCell id="KN3hPESkImrYS8vrROSs-25" value="Inference( input )" style="swimlane;rounded=0;sketch=0;fontSize=14;fontColor=#E4FDE1;strokeColor=#028090;fillColor=#F45B69;" vertex="1" parent="77e6c97f196da883-3">
          <mxGeometry x="145" y="120" width="200" height="325" as="geometry" />
        </mxCell>
        <mxCell id="KN3hPESkImrYS8vrROSs-30" value="" style="edgeStyle=orthogonalEdgeStyle;curved=0;rounded=1;sketch=0;orthogonalLoop=1;jettySize=auto;html=1;fontSize=14;fontColor=#E4FDE1;strokeColor=#028090;fillColor=#F45B69;" edge="1" parent="KN3hPESkImrYS8vrROSs-25" source="KN3hPESkImrYS8vrROSs-22" target="KN3hPESkImrYS8vrROSs-29">
          <mxGeometry relative="1" as="geometry" />
        </mxCell>
        <mxCell id="KN3hPESkImrYS8vrROSs-22" value="&lt;font style=&quot;font-size: 12px&quot;&gt;Conv2D&lt;/font&gt;" style="rounded=1;whiteSpace=wrap;html=1;shadow=0;labelBackgroundColor=none;strokeWidth=1;fontFamily=Verdana;fontSize=8;align=center;fillColor=#F45B69;strokeColor=#028090;fontColor=#E4FDE1;" vertex="1" parent="KN3hPESkImrYS8vrROSs-25">
          <mxGeometry x="50" y="75" width="100" height="60" as="geometry" />
        </mxCell>
        <mxCell id="KN3hPESkImrYS8vrROSs-28" value="" style="edgeStyle=orthogonalEdgeStyle;curved=0;rounded=1;sketch=0;orthogonalLoop=1;jettySize=auto;html=1;fontSize=14;fontColor=#E4FDE1;strokeColor=#028090;fillColor=#F45B69;" edge="1" parent="KN3hPESkImrYS8vrROSs-25" source="KN3hPESkImrYS8vrROSs-27" target="KN3hPESkImrYS8vrROSs-22">
          <mxGeometry relative="1" as="geometry" />
        </mxCell>
        <mxCell id="KN3hPESkImrYS8vrROSs-27" value="INPUT: 28x28x1" style="text;html=1;align=center;verticalAlign=middle;resizable=0;points=[];autosize=1;strokeColor=none;fillColor=none;fontSize=14;fontColor=#E4FDE1;" vertex="1" parent="KN3hPESkImrYS8vrROSs-25">
          <mxGeometry x="40" y="40" width="120" height="20" as="geometry" />
        </mxCell>
        <mxCell id="KN3hPESkImrYS8vrROSs-32" value="" style="edgeStyle=orthogonalEdgeStyle;curved=0;rounded=1;sketch=0;orthogonalLoop=1;jettySize=auto;html=1;fontSize=14;fontColor=#E4FDE1;strokeColor=#028090;fillColor=#F45B69;" edge="1" parent="KN3hPESkImrYS8vrROSs-25" source="KN3hPESkImrYS8vrROSs-29" target="KN3hPESkImrYS8vrROSs-31">
          <mxGeometry relative="1" as="geometry" />
        </mxCell>
        <mxCell id="KN3hPESkImrYS8vrROSs-29" value="&lt;font style=&quot;font-size: 12px&quot;&gt;MaxPool2D&lt;/font&gt;" style="rounded=1;whiteSpace=wrap;html=1;shadow=0;labelBackgroundColor=none;strokeWidth=1;fontFamily=Verdana;fontSize=8;align=center;fillColor=#F45B69;strokeColor=#028090;fontColor=#E4FDE1;" vertex="1" parent="KN3hPESkImrYS8vrROSs-25">
          <mxGeometry x="50" y="155" width="100" height="35" as="geometry" />
        </mxCell>
        <mxCell id="KN3hPESkImrYS8vrROSs-53" value="" style="edgeStyle=orthogonalEdgeStyle;curved=0;rounded=1;sketch=0;orthogonalLoop=1;jettySize=auto;html=1;fontSize=14;fontColor=#E4FDE1;strokeColor=#028090;fillColor=#F45B69;" edge="1" parent="KN3hPESkImrYS8vrROSs-25" source="KN3hPESkImrYS8vrROSs-31" target="KN3hPESkImrYS8vrROSs-52">
          <mxGeometry relative="1" as="geometry" />
        </mxCell>
        <mxCell id="KN3hPESkImrYS8vrROSs-31" value="&lt;font style=&quot;font-size: 12px&quot;&gt;Flatten&lt;/font&gt;" style="rounded=1;whiteSpace=wrap;html=1;shadow=0;labelBackgroundColor=none;strokeWidth=1;fontFamily=Verdana;fontSize=8;align=center;fillColor=#F45B69;strokeColor=#028090;fontColor=#E4FDE1;" vertex="1" parent="KN3hPESkImrYS8vrROSs-25">
          <mxGeometry x="50" y="215" width="100" height="20" as="geometry" />
        </mxCell>
        <mxCell id="KN3hPESkImrYS8vrROSs-55" value="" style="edgeStyle=orthogonalEdgeStyle;curved=0;rounded=1;sketch=0;orthogonalLoop=1;jettySize=auto;html=1;fontSize=14;fontColor=#E4FDE1;strokeColor=#028090;fillColor=#F45B69;" edge="1" parent="KN3hPESkImrYS8vrROSs-25" source="KN3hPESkImrYS8vrROSs-52" target="KN3hPESkImrYS8vrROSs-54">
          <mxGeometry relative="1" as="geometry" />
        </mxCell>
        <mxCell id="KN3hPESkImrYS8vrROSs-52" value="&lt;font style=&quot;font-size: 12px&quot;&gt;Dense&lt;/font&gt;" style="rounded=1;whiteSpace=wrap;html=1;shadow=0;labelBackgroundColor=none;strokeWidth=1;fontFamily=Verdana;fontSize=8;align=center;fillColor=#F45B69;strokeColor=#028090;fontColor=#E4FDE1;" vertex="1" parent="KN3hPESkImrYS8vrROSs-25">
          <mxGeometry x="50" y="275" width="100" height="25" as="geometry" />
        </mxCell>
        <mxCell id="KN3hPESkImrYS8vrROSs-54" value="&lt;font style=&quot;font-size: 12px&quot;&gt;Prediction&lt;/font&gt;" style="rounded=1;whiteSpace=wrap;html=1;shadow=0;labelBackgroundColor=none;strokeWidth=1;fontFamily=Verdana;fontSize=8;align=center;fillColor=#F45B69;strokeColor=#028090;fontColor=#E4FDE1;" vertex="1" parent="KN3hPESkImrYS8vrROSs-25">
          <mxGeometry x="50" y="370" width="100" height="25" as="geometry" />
        </mxCell>
        <mxCell id="KN3hPESkImrYS8vrROSs-26" style="edgeStyle=orthogonalEdgeStyle;curved=0;rounded=1;sketch=0;orthogonalLoop=1;jettySize=auto;html=1;entryX=0.005;entryY=0.027;entryDx=0;entryDy=0;entryPerimeter=0;fontSize=14;fontColor=#E4FDE1;strokeColor=#028090;fillColor=#F45B69;" edge="1" parent="1" source="KN3hPESkImrYS8vrROSs-18" target="KN3hPESkImrYS8vrROSs-25">
          <mxGeometry relative="1" as="geometry" />
        </mxCell>
        <mxCell id="KN3hPESkImrYS8vrROSs-58" style="edgeStyle=orthogonalEdgeStyle;curved=0;rounded=1;sketch=0;orthogonalLoop=1;jettySize=auto;html=1;fontSize=14;fontColor=#E4FDE1;strokeColor=#028090;fillColor=#F45B69;entryX=1;entryY=0.5;entryDx=0;entryDy=0;" edge="1" parent="1" source="KN3hPESkImrYS8vrROSs-54" target="KN3hPESkImrYS8vrROSs-56">
          <mxGeometry relative="1" as="geometry">
            <mxPoint x="535" y="562.5" as="targetPoint" />
            <Array as="points">
              <mxPoint x="475" y="563" />
              <mxPoint x="475" y="545" />
              <mxPoint x="435" y="545" />
              <mxPoint x="435" y="563" />
            </Array>
          </mxGeometry>
        </mxCell>
      </root>
    </mxGraphModel>
  </diagram>
  <diagram id="rtK0ZDbgOLjjfoJRo5S2" name="Page-2">
    <mxGraphModel dx="1426" dy="737" grid="1" gridSize="10" guides="1" tooltips="1" connect="1" arrows="1" fold="1" page="1" pageScale="1" pageWidth="827" pageHeight="1169" math="0" shadow="0">
      <root>
        <mxCell id="l_3pFPiKnHzlFJhKLtLH-0" />
        <mxCell id="l_3pFPiKnHzlFJhKLtLH-1" parent="l_3pFPiKnHzlFJhKLtLH-0" />
      </root>
    </mxGraphModel>
  </diagram>
</mxfile>
